<?xml version="1.0" encoding="UTF-8"?>
<svg version="1.1" xmlns="http://www.w3.org/2000/svg" width="500" height="500">
<path d="M0 0 C0.94955566 0.30953613 1.89911133 0.61907227 2.87744141 0.93798828 C36.19477775 12.01693688 65.74030303 29.80760532 92 53 C92.53286621 53.46970215 93.06573242 53.9394043 93.61474609 54.42333984 C99.84080591 59.94193562 105.67794582 65.59064443 111 72 C111.79535156 72.9075 112.59070313 73.815 113.41015625 74.75 C142.06863885 107.55517454 161.53428063 147.50923572 170.25 190.1875 C170.47659302 191.28856079 170.47659302 191.28856079 170.70776367 192.41186523 C173.65842896 207.79093906 174.37501251 223.00205477 174.3125 238.625 C174.31034485 239.59555328 174.3081897 240.56610657 174.30596924 241.56607056 C174.2549334 255.89430898 173.90758438 269.92185782 171 284 C170.80132324 284.98307129 170.60264648 285.96614258 170.39794922 286.97900391 C163.3514513 320.86025497 150.18335428 353.75053819 130 382 C129.56461914 382.61053223 129.12923828 383.22106445 128.68066406 383.85009766 C122.50455615 392.45298784 115.9864716 400.49483167 108.68359375 408.1640625 C106.45883008 410.5151228 104.33778987 412.90373852 102.25 415.375 C99.42056096 418.64184025 96.35739378 421.45863891 93.05859375 424.24609375 C91.73325018 425.37527642 90.43114409 426.53262305 89.16015625 427.72265625 C39.90825261 473.65859014 -27.11780412 491.31946804 -92.87207031 489.22753906 C-112.07944054 488.46859065 -130.70658714 484.83104738 -149 479 C-149.82193848 478.74379883 -150.64387695 478.48759766 -151.49072266 478.22363281 C-186.41334477 467.20271425 -217.67211266 448.756928 -244.65625 424.12109375 C-246.79924312 422.18168497 -248.98344638 420.30670701 -251.1875 418.4375 C-254.48994908 415.5577644 -257.35441822 412.46971341 -260.1796875 409.125 C-261.40092463 407.69934979 -262.657291 406.30311315 -263.9453125 404.9375 C-295.27161151 371.6460826 -313.66682167 328.22101194 -323 284 C-323.19352051 283.08766602 -323.38704102 282.17533203 -323.58642578 281.23535156 C-331.23732854 242.75430674 -326.81739987 200.02059775 -315 163 C-314.73348633 162.13648926 -314.46697266 161.27297852 -314.19238281 160.38330078 C-301.31266571 118.94034658 -274.78349361 77.7230959 -241 50 C-240.18015625 49.28070313 -239.3603125 48.56140625 -238.515625 47.8203125 C-212.593831 25.40726962 -181.58997194 9.23679591 -149 -1 C-148.16098145 -1.26796387 -147.32196289 -1.53592773 -146.45751953 -1.81201172 C-99.66900867 -16.49267116 -46.42861394 -15.14161183 0 0 Z " fill="#3793FD" transform="translate(326,11)"/>
<path d="M0 0 C1.25628204 -0.00525696 2.51256409 -0.01051392 3.80691528 -0.01593018 C7.23268224 -0.02682919 10.65790162 -0.02433445 14.08363724 -0.01479292 C17.68068387 -0.00715996 21.27770824 -0.01425198 24.87475586 -0.01895142 C30.91361659 -0.02439844 36.95236699 -0.01724514 42.99121094 -0.00292969 C49.95771724 0.01339487 56.92396009 0.00810561 63.89046001 -0.0084089 C69.88817177 -0.02205392 75.88580453 -0.02392875 81.8835268 -0.0160929 C85.45851772 -0.01143289 89.0333851 -0.01074514 92.60836792 -0.02070236 C96.59578572 -0.03103397 100.58291202 -0.01668542 104.5703125 0 C105.74457794 -0.00607269 106.91884338 -0.01214539 108.12869263 -0.0184021 C115.11219722 0.03563436 121.45461837 0.36365472 127.16015625 4.86865234 C131.60201264 11.60855249 131.08257257 19.63226064 130.28515625 27.38818359 C128.75120772 31.63658482 126.15715598 33.14242375 122.28515625 35.38818359 C119.40969102 36.2972422 116.82486937 36.51203493 113.81793213 36.50843811 C112.93078648 36.50981561 112.04364082 36.5111931 111.12961197 36.51261234 C110.16032635 36.50901423 109.19104073 36.50541613 108.19238281 36.50170898 C106.63049036 36.50188979 106.63049036 36.50188979 105.03704453 36.50207424 C101.6666017 36.50132787 98.29621418 36.49371214 94.92578125 36.48583984 C92.84488959 36.48436957 90.76399757 36.48334939 88.68310547 36.48278809 C80.96711676 36.47754509 73.25113596 36.4635839 65.53515625 36.45068359 C48.29265625 36.43005859 31.05015625 36.40943359 13.28515625 36.38818359 C13.28515625 105.35818359 13.28515625 174.32818359 13.28515625 245.38818359 C50.48760809 245.19032216 50.48760809 245.19032216 87.68969727 244.93774414 C94.89440918 244.91516113 94.89440918 244.91516113 98.27012634 244.91096497 C100.62153354 244.90330049 102.9729214 244.8857427 105.32420349 244.86030579 C108.89169309 244.82364981 112.45798476 244.81865527 116.02563477 244.82055664 C117.06844132 244.8025661 118.11124788 244.78457556 119.18565464 244.76603985 C125.86923154 244.81365134 129.31450595 245.83224272 134.28515625 250.38818359 C136.39731214 254.67068148 136.58208066 258.65320414 136.59765625 263.38818359 C136.61441406 264.56380859 136.63117188 265.73943359 136.6484375 266.95068359 C136.11396848 272.00802488 134.50727265 275.25772592 130.78515625 278.70068359 C127.01459601 281.24581176 124.19598281 281.51737137 119.75267029 281.54208374 C118.60184464 281.5506842 117.45101898 281.55928467 116.26531982 281.56814575 C115.00141418 281.5724057 113.73750854 281.57666565 112.43530273 281.58105469 C111.09149464 281.58895808 109.74768865 281.59722718 108.40388489 281.60583496 C103.98802715 281.63203748 99.57216005 281.64736532 95.15625 281.66162109 C93.63376421 281.66698235 92.11127848 281.67235987 90.5887928 281.67775345 C84.25186579 281.69938359 77.9149413 281.71811708 71.57798672 281.72937584 C62.51098269 281.74559291 53.4444087 281.7787141 44.37756675 281.83577669 C37.99523723 281.8745666 31.61302226 281.89401945 25.23057801 281.8992964 C21.42278912 281.90293883 17.61545907 281.91483984 13.80779839 281.94739914 C10.2199056 281.97763841 6.63274541 281.98373616 3.04475212 281.97201538 C1.11432882 281.97169201 -0.81605034 281.99605426 -2.74630737 282.02139282 C-10.05364507 281.96946407 -17.04523815 281.43697156 -22.71484375 276.38818359 C-27.40242141 270.10721081 -28.43935278 264.62615187 -28.33630371 256.93363953 C-28.34269253 255.91761195 -28.34908135 254.90158438 -28.35566378 253.8547681 C-28.37085573 250.46925872 -28.35048967 247.08493049 -28.33007812 243.69946289 C-28.3335811 241.26443088 -28.33924167 238.82940117 -28.34689331 236.39437866 C-28.35965061 230.477867 -28.34922373 224.56166848 -28.32778007 218.64520725 C-28.30369496 211.7449024 -28.30548916 204.84467525 -28.30808598 197.9443377 C-28.31177227 185.62419753 -28.29098693 173.30421891 -28.25683594 160.98413086 C-28.2237688 149.05049556 -28.2095745 137.11702982 -28.21582031 125.18334961 C-28.22259828 112.16901208 -28.22008262 99.15474546 -28.20046091 86.14041835 C-28.19942143 85.45088342 -28.19838194 84.76134848 -28.19731095 84.05091855 C-28.19522017 82.66631187 -28.1931092 81.28170522 -28.19097778 79.8970986 C-28.18410672 75.09660695 -28.18340882 70.29613724 -28.18486023 65.49564171 C-28.18645799 59.02195611 -28.17144448 52.54842976 -28.1456337 46.07479477 C-28.13849736 43.70454065 -28.136376 41.33426507 -28.13975143 38.96400261 C-28.16929179 13.3214819 -28.16929179 13.3214819 -24.71484375 6.38818359 C-17.47664217 -0.07307802 -9.18807252 -0.04751595 0 0 Z " fill="#FBFDFE" transform="translate(198.71484375,108.61181640625)"/>
<path d="M0 0 C5.66015521 3.47327706 9.90717435 9.48734611 11.875 15.8125 C11.91625 16.864375 11.9575 17.91625 12 19 C12.04898438 19.92039063 12.09796875 20.84078125 12.1484375 21.7890625 C12.35191532 28.09687486 11.99914412 32.44602941 9 38 C8.525625 39.0725 8.05125 40.145 7.5625 41.25 C5.97132168 44.05047385 4.76366813 45.39528948 2 47 C1.34 47 0.68 47 0 47 C0 47.66 0 48.32 0 49 C-8.83295898 53.71237266 -16.98836242 55.63948909 -26.92578125 52.80859375 C-35.93182467 49.29776326 -40.95090318 43.18230665 -45.1328125 34.703125 C-47.5250967 27.24609498 -47.23135441 17.49362614 -43.9375 10.375 C-39.82532745 3.52903677 -34.35590164 -0.59329591 -26.87109375 -3.3046875 C-17.47403511 -5.58043776 -8.45819093 -4.64149292 0 0 Z " fill="#F9FDFE" transform="translate(290,219)"/>
<path d="M0 0 C1 2 1 2 0.57238865 3.99660778 C-0.25687339 8.34784565 -0.15368775 12.63399873 -0.15821838 17.05427551 C-0.16315636 18.07535217 -0.16809434 19.09642884 -0.17318195 20.14844722 C-0.18855469 23.57397945 -0.19691701 26.99949294 -0.20532227 30.42504883 C-0.21490096 32.87895879 -0.22491104 35.3328671 -0.23532104 37.78677368 C-0.25677004 43.07198859 -0.27521414 48.35720094 -0.29092598 53.64243507 C-0.31364779 61.28397541 -0.3417874 68.92548825 -0.37124526 76.56700524 C-0.41889284 88.96514955 -0.46216469 101.36330511 -0.50268555 113.76147461 C-0.5420549 125.80445226 -0.58348457 137.84741993 -0.62768555 149.89038086 C-0.63040982 150.63282914 -0.63313409 151.37527742 -0.63594092 152.14022414 C-0.64962063 155.86490483 -0.66334086 159.58958538 -0.67708123 163.31426585 C-0.79100148 194.20948994 -0.89774778 225.10473498 -1 256 C-3 254 -3 254 -3.24954766 252.15204769 C-3.24933029 251.39499269 -3.24911292 250.63793769 -3.24888897 249.85794163 C-3.25348777 248.98496073 -3.25808656 248.11197984 -3.26282471 247.21254498 C-3.25768115 246.24767995 -3.25253759 245.28281491 -3.24723816 244.28871155 C-3.24965257 243.26823131 -3.25206699 242.24775106 -3.25455457 241.19634718 C-3.26021957 237.75461359 -3.2515073 234.31306332 -3.24291992 230.87133789 C-3.24399212 228.41288706 -3.24592986 225.95443647 -3.24867249 223.49598694 C-3.25302861 217.49807559 -3.24806373 211.50023679 -3.23882218 205.50233633 C-3.22845244 198.5219722 -3.228508 191.54162005 -3.22899476 184.56124967 C-3.22949576 172.10828567 -3.22032419 159.65534732 -3.20581055 147.20239258 C-3.19172543 135.11091647 -3.18463962 123.01946294 -3.18530273 110.92797852 C-3.18534269 110.18345128 -3.18538265 109.43892404 -3.18542381 108.67183537 C-3.18546417 107.92861267 -3.18550452 107.18538997 -3.1855461 106.41964537 C-3.18623564 92.66685949 -3.1803472 78.91408323 -3.17139288 65.16130047 C-3.16837376 60.29254679 -3.16731299 55.42379487 -3.16686058 50.55504036 C-3.16610793 44.00438347 -3.1597719 37.45374736 -3.14969444 30.90309715 C-3.14676553 28.49358389 -3.14554486 26.08406789 -3.14612198 23.67455292 C-3.14661025 20.395767 -3.14098083 17.11704863 -3.13371277 13.83827209 C-3.13526137 12.87563778 -3.13680997 11.91300347 -3.1384055 10.92119843 C-3.13518106 10.04560979 -3.13195661 9.17002114 -3.12863445 8.26789951 C-3.12793003 7.51068216 -3.1272256 6.7534648 -3.12649983 5.97330147 C-3 4 -3 4 -2 1 C-1.34 0.67 -0.68 0.34 0 0 Z " fill="#70B0F0" transform="translate(172,120)"/>
<path d="M0 0 C-4.79862787 3.82541494 -9.36878672 3.3706613 -15.20629883 3.2487793 C-16.247681 3.23922872 -17.28906317 3.22967813 -18.36200237 3.21983814 C-21.72735035 3.1855155 -25.09198248 3.13027633 -28.45703125 3.07421875 C-30.53689025 3.0499288 -32.61676576 3.0270119 -34.69665527 3.00549316 C-42.40214784 2.91613975 -50.10731367 2.80020869 -57.8125 2.6875 C-83.6453125 2.3471875 -83.6453125 2.3471875 -110 2 C-110 70.31 -110 138.62 -110 209 C-74.03 209 -38.06 209 -1 209 C-1 209.33 -1 209.66 -1 210 C-37.3 210 -73.6 210 -111 210 C-111 141.03 -111 72.06 -111 1 C-58.75 0.5625 -58.75 0.5625 -42.24902344 0.43188477 C-37.36989775 0.38863384 -37.36989775 0.38863384 -32.49078369 0.34410095 C-30.31680775 0.32487395 -28.14281444 0.30755322 -25.96881104 0.29173279 C-22.67674192 0.26740665 -19.38477851 0.23704126 -16.09277344 0.20532227 C-15.12348782 0.19955201 -14.15420219 0.19378176 -13.15554428 0.18783665 C-11.8248258 0.17317561 -11.8248258 0.17317561 -10.46722412 0.15821838 C-9.69660519 0.15176583 -8.92598625 0.14531328 -8.13201523 0.1386652 C-5.97343712 0.06733151 -5.97343712 0.06733151 -3.84579849 -0.57238865 C-2 -1 -2 -1 0 0 Z " fill="#6CADF5" transform="translate(323,144)"/>
<path d="M0 0 C1.26270721 -0.00365067 2.52541443 -0.00730133 3.8263855 -0.01106262 C7.26832255 -0.02041517 10.70997245 -0.01109619 14.15188694 0.00226951 C17.76147534 0.01363594 21.37105068 0.00947275 24.98065186 0.00752258 C31.0363023 0.0066417 37.09184034 0.01768068 43.14746094 0.03613281 C50.14581313 0.05733558 57.14400123 0.06080099 64.14237905 0.05457085 C70.88494737 0.04887625 77.627458 0.05452153 84.37001801 0.0657444 C87.23596007 0.07038521 90.10186679 0.07126654 92.96781158 0.06915855 C96.9656077 0.06692493 100.96317392 0.08138459 104.9609375 0.09765625 C106.14958405 0.09517883 107.33823059 0.09270142 108.56289673 0.09014893 C109.65067413 0.09723373 110.73845154 0.10431854 111.85919189 0.11161804 C113.27607237 0.11469735 113.27607237 0.11469735 114.72157669 0.11783886 C117.33351764 0.383698 118.977187 1.04611134 121.22167969 2.37231445 C120.19269294 2.37727967 120.19269294 2.37727967 119.14291859 2.3823452 C102.4506864 2.46356808 85.75855315 2.55565818 69.06644917 2.65984154 C60.99426989 2.70996182 52.92210074 2.75640481 44.84985352 2.79418945 C37.81402653 2.82713214 30.77827825 2.86697596 23.74253815 2.91510451 C20.01722346 2.94034688 16.29196083 2.96213482 12.56658363 2.97565842 C8.40763668 2.99088523 4.24894001 3.02151911 0.09008789 3.0534668 C-1.76244598 3.05670708 -1.76244598 3.05670708 -3.65240479 3.06001282 C-5.35395973 3.07675804 -5.35395973 3.07675804 -7.08988953 3.09384155 C-8.07344264 3.09937231 -9.05699575 3.10490307 -10.07035351 3.11060143 C-15.42324362 3.62793461 -18.12835083 5.60460402 -21.77832031 9.37231445 C-24.02832031 10.62231445 -24.02832031 10.62231445 -25.77832031 11.37231445 C-25.47078827 8.52764302 -25.2299593 6.842019 -23.21582031 4.74731445 C-15.41456201 0.34660464 -8.81731931 -0.05708974 0 0 Z " fill="#CCECFE" transform="translate(198.7783203125,108.627685546875)"/>
<path d="M0 0 C17.14155803 -0.07005989 34.28307142 -0.12297332 51.42473984 -0.15543652 C59.3837945 -0.17090993 67.34276023 -0.19200844 75.30175781 -0.22631836 C82.23827112 -0.25620629 89.17472003 -0.27557156 96.11129594 -0.28226548 C99.78468436 -0.2861788 103.45788854 -0.29538528 107.13121796 -0.31719017 C111.23046567 -0.34132627 115.32939242 -0.34197039 119.42871094 -0.34057617 C121.25858551 -0.35675491 121.25858551 -0.35675491 123.12542725 -0.3732605 C124.79967773 -0.36707451 124.79967773 -0.36707451 126.50775146 -0.36076355 C127.47747768 -0.36352893 128.4472039 -0.36629431 129.44631577 -0.36914349 C132.46306463 0.06693752 133.85869922 0.84807784 136 3 C136 3.99 136 4.98 136 6 C136.66 6 137.32 6 138 6 C140.13604308 9.20406462 140.24208908 9.99600747 140.1953125 13.66796875 C140.18564453 15.00698242 140.18564453 15.00698242 140.17578125 16.37304688 C140.15064453 17.76620117 140.15064453 17.76620117 140.125 19.1875 C140.11597656 20.12787109 140.10695313 21.06824219 140.09765625 22.03710938 C140.07409056 24.35832968 140.04119116 26.67903644 140 29 C139.34 29.33 138.68 29.66 138 30 C138.04640625 28.78183594 138.0928125 27.56367188 138.140625 26.30859375 C138.17816658 24.68492052 138.21456417 23.06122055 138.25 21.4375 C138.30027344 20.23770508 138.30027344 20.23770508 138.3515625 19.01367188 C138.4473288 13.14798594 137.71770464 9.63543991 134 5 C127.20531576 1.64538112 121.01078924 1.55828127 113.52539062 1.56762695 C111.68021347 1.55233948 111.68021347 1.55233948 109.79776001 1.53674316 C106.44697327 1.5118371 103.09662394 1.49990796 99.74578285 1.49388909 C96.23568708 1.48446877 92.72571625 1.45826262 89.21569824 1.43388367 C82.57903734 1.3903151 75.94240082 1.3617091 69.3056407 1.33856028 C61.74567183 1.31145669 54.18582927 1.26754852 46.62595081 1.22227156 C31.08403226 1.12956353 15.54208989 1.05781969 0 1 C0 0.67 0 0.34 0 0 Z " fill="#519AE6" transform="translate(190,108)"/>
<path d="M0 0 C0.33 1.32 0.66 2.64 1 4 C-6.26123714 7.41239122 -12.81683918 7.42584312 -20.75634766 7.38818359 C-22.13694167 7.39225472 -23.51753242 7.39759962 -24.89811707 7.40411377 C-28.62734823 7.4177265 -32.3563289 7.41251462 -36.08556414 7.40297651 C-39.99718402 7.39535147 -43.90878327 7.40243311 -47.82040405 7.40713501 C-54.38551667 7.41258302 -60.95052781 7.40542475 -67.515625 7.39111328 C-75.09791608 7.37477495 -82.67996528 7.38008762 -90.26225054 7.3965925 C-96.78391639 7.41021841 -103.30550955 7.41212204 -109.82718503 7.40427649 C-113.7173359 7.39960778 -117.60737314 7.39895324 -121.49751663 7.40888596 C-125.15349183 7.41757 -128.80915576 7.41150781 -132.46509743 7.39420319 C-134.44149476 7.38836367 -136.4179185 7.39724065 -138.39430237 7.40658569 C-139.5773848 7.39812622 -140.76046722 7.38966675 -141.97940063 7.38095093 C-143.00326181 7.37981985 -144.02712299 7.37868877 -145.08201027 7.37752342 C-148.53529226 6.930745 -150.98310909 5.69740619 -154 4 C-153.67 3.34 -153.34 2.68 -153 2 C-152.12070328 2.48699371 -151.24140656 2.97398743 -150.33546448 3.47573853 C-144.66365873 5.8831855 -138.69228157 5.41748645 -132.63256836 5.38818359 C-131.28167803 5.39225365 -129.93079103 5.39759796 -128.57991028 5.40411377 C-124.92706215 5.41774046 -121.27446943 5.41250847 -117.62161708 5.40297651 C-113.79140352 5.39535727 -109.96121116 5.40243165 -106.1309967 5.40713501 C-99.70114229 5.41258533 -93.27139142 5.40541932 -86.84155273 5.39111328 C-79.41549099 5.37478116 -71.98967629 5.38008217 -64.56362051 5.3965925 C-58.17785436 5.41021976 -51.79216243 5.41212119 -45.40638644 5.40427649 C-41.59670339 5.39960767 -37.78713638 5.39895342 -33.97746086 5.40888596 C-30.39618715 5.41757173 -26.81523113 5.41150468 -23.23399162 5.39420319 C-21.29813953 5.38836486 -19.36226046 5.39723966 -17.42642212 5.40658569 C-10.42586174 5.35550158 -5.19472757 5.19472757 0 0 Z " fill="#4691E7" transform="translate(332,384)"/>
<path d="M0 0 C-4.7986174 3.8254066 -9.36864496 3.37073828 -15.20629883 3.2487793 C-16.23115387 3.23946381 -17.25600891 3.23014832 -18.31192017 3.22055054 C-21.69396253 3.18622014 -25.07528574 3.13031773 -28.45703125 3.07421875 C-30.80399553 3.04618175 -33.15097625 3.01949176 -35.49797058 2.99409485 C-41.67132174 2.923672 -47.84427966 2.8349477 -54.01733398 2.74243164 C-60.31806136 2.65123424 -66.61898874 2.57731728 -72.91992188 2.50195312 C-85.28020526 2.35156345 -97.64014213 2.18184191 -110 2 C-110 1.67 -110 1.34 -110 1 C-108.70596252 0.98969254 -107.41192505 0.97938507 -106.07867432 0.96876526 C-93.89490423 0.87108958 -81.71118587 0.76836097 -69.52750015 0.66066074 C-63.26346856 0.6054516 -56.99943228 0.55203471 -50.73535156 0.50268555 C-44.6923386 0.45501251 -38.64938264 0.40266847 -32.60643768 0.34705925 C-30.29873826 0.32664906 -27.99102321 0.30793377 -25.6832962 0.29092598 C-22.45579879 0.26685257 -19.22840904 0.23680176 -16.00097656 0.20532227 C-15.04288086 0.1995668 -14.08478516 0.19381134 -13.09765625 0.18788147 C-12.21708557 0.17809265 -11.33651489 0.16830383 -10.42926025 0.15821838 C-9.66601566 0.15176583 -8.90277107 0.14531328 -8.11639786 0.1386652 C-5.97129493 0.06660582 -5.97129493 0.06660582 -3.84817123 -0.57238865 C-2 -1 -2 -1 0 0 Z " fill="#62A5E9" transform="translate(323,144)"/>
<path d="M0 0 C-2.42063745 2.42063745 -3.22062839 2.30939248 -6.55078125 2.52734375 C-7.47157471 2.59574463 -8.39236816 2.66414551 -9.34106445 2.73461914 C-10.32163818 2.80156982 -11.30221191 2.86852051 -12.3125 2.9375 C-25.99538939 3.19964565 -25.99538939 3.19964565 -38 8 C-40.33297433 8.04092937 -42.66705225 8.04241723 -45 8 C-45.33 8.99 -45.66 9.98 -46 11 C-48.31 10.67 -50.62 10.34 -53 10 C-42.69362738 3.12908492 -27.42951207 2.28616067 -15.4375 0.625 C-13.50124756 0.35550537 -13.50124756 0.35550537 -11.52587891 0.08056641 C-2.26608398 -1.13304199 -2.26608398 -1.13304199 0 0 Z " fill="#5695DC" transform="translate(230,1)"/>
<path d="M0 0 C1.98 0.495 1.98 0.495 4 1 C4 1.99 4 2.98 4 4 C3.01 4 2.02 4 1 4 C1.33 9.28 1.66 14.56 2 20 C2.66 20 3.32 20 4 20 C4 22.97 4 25.94 4 29 C4.66 29 5.32 29 6 29 C6.06058594 29.69867188 6.12117187 30.39734375 6.18359375 31.1171875 C6.26738281 32.02726562 6.35117188 32.93734375 6.4375 33.875 C6.51871094 34.77992188 6.59992187 35.68484375 6.68359375 36.6171875 C6.86989285 39.01110861 6.86989285 39.01110861 8 41 C8.04022391 43.3329866 8.04320247 45.66706666 8 48 C5.49111198 43.37539801 4.6035344 38.54582321 3.5 33.4375 C3.28005371 32.42276611 3.06010742 31.40803223 2.83349609 30.36254883 C1.4336111 23.66474212 0.34095938 16.99242877 -0.375 10.1875 C-0.45943359 9.38820068 -0.54386719 8.58890137 -0.63085938 7.76538086 C-1.13749725 2.27499449 -1.13749725 2.27499449 0 0 Z " fill="#5599E3" transform="translate(1,268)"/>
<path d="M0 0 C0.33 0 0.66 0 1 0 C1.09765625 6.15234375 1.09765625 6.15234375 1 8 C0.67 8.33 0.34 8.66 0 9 C-0.20604085 10.32781878 -0.3662959 11.66295895 -0.5 13 C-0.88888889 16.88888889 -0.88888889 16.88888889 -2 18 C-4.05764722 24.94455936 -4.34909249 32.09550591 -4.5703125 39.28515625 C-4.79011106 44.79011106 -4.79011106 44.79011106 -7 47 C-8.80096756 41.59709733 -7.09739369 35.80460573 -6.3125 30.25 C-6.22174194 29.59504547 -6.13098389 28.94009094 -6.03747559 28.26528931 C-4.69125442 18.60999754 -3.01292068 9.27915464 0 0 Z " fill="#5696DF" transform="translate(8,184)"/>
<path d="M0 0 C0.91574833 3.0906506 1.40198406 5.78412751 1 9 C-0.9375 11.1875 -0.9375 11.1875 -3 13 C-3.33 13.66 -3.66 14.32 -4 15 C-5.875 16.1875 -5.875 16.1875 -8 17 C-8.99 16.67 -9.98 16.34 -11 16 C-9.730624 14.08236785 -8.45944055 12.16593207 -7.1875 10.25 C-6.47980469 9.18265625 -5.77210937 8.1153125 -5.04296875 7.015625 C-3.42050074 4.6207009 -1.76324711 2.29166502 0 0 Z " fill="#3992FA" transform="translate(47,103)"/>
<path d="M0 0 C2.33944736 0.28730055 4.6739143 0.61936779 7 1 C1.92688298 8.56843067 -4.4055946 14.93706306 -12 20 C-12 18.68 -12 17.36 -12 16 C-9.5625 14.375 -9.5625 14.375 -7 13 C-6.67 12.34 -6.34 11.68 -6 11 C-5.34 11 -4.68 11 -4 11 C-4 10.34 -4 9.68 -4 9 C-2.68 8.34 -1.36 7.68 0 7 C-0.185625 6.030625 -0.37125 5.06125 -0.5625 4.0625 C-0.706875 3.051875 -0.85125 2.04125 -1 1 C-0.67 0.67 -0.34 0.34 0 0 Z " fill="#4294EE" transform="translate(425,420)"/>
<path d="M0 0 C1.32 0.66 2.64 1.32 4 2 C3.401875 2.226875 2.80375 2.45375 2.1875 2.6875 C-0.1701451 3.85824041 -0.1701451 3.85824041 -1.3125 6.3125 C-3.28987814 9.46165777 -5.39833052 10.89301154 -8.4765625 12.88671875 C-10.16025834 13.93860907 -10.16025834 13.93860907 -11 16 C-11.66 15.67 -12.32 15.34 -13 15 C-13 12 -13 12 -11.80664062 10.55786133 C-11.26201172 10.0708374 -10.71738281 9.58381348 -10.15625 9.08203125 C-9.27646484 8.28442383 -9.27646484 8.28442383 -8.37890625 7.47070312 C-7.75886719 6.92349609 -7.13882813 6.37628906 -6.5 5.8125 C-5.87996094 5.25369141 -5.25992188 4.69488281 -4.62109375 4.11914062 C-3.08731555 2.73874025 -1.54449175 1.36840272 0 0 Z " fill="#4590E7" transform="translate(87,59)"/>
<path d="M0 0 C0.99 0.33 1.98 0.66 3 1 C4.0625 3.1796875 4.0625 3.1796875 5 5.875 C6.51128817 10.19476535 7.81719899 12.90859949 12 15 C12 15.33 12 15.66 12 16 C12.33 15.01 12.66 14.02 13 13 C13.66 13.33 14.32 13.66 15 14 C14.34 17.3 13.68 20.6 13 24 C9.32552309 19.77772264 6.8180889 15.2437326 4.25 10.3125 C3.83878906 9.54099609 3.42757813 8.76949219 3.00390625 7.97460938 C0 2.26119965 0 2.26119965 0 0 Z " fill="#4390E8" transform="translate(24,357)"/>
<path d="M0 0 C3.68266103 0.59950296 7.34543185 1.24758891 11 2 C11 2.66 11 3.32 11 4 C12.65 4 14.3 4 16 4 C16.33 3.34 16.66 2.68 17 2 C17.99 2.66 18.98 3.32 20 4 C20.99 4 21.98 4 23 4 C22.67 4.99 22.34 5.98 22 7 C22.33 7.66 22.66 8.32 23 9 C14.97928527 7.05797655 7.54549287 4.33160505 0 1 C0 0.67 0 0.34 0 0 Z " fill="#4492E7" transform="translate(150,479)"/>
<path d="M0 0 C2.31 0.33 4.62 0.66 7 1 C2.75036698 5.52380289 -1.95520887 9.38317661 -7 13 C-7.33 13 -7.66 13 -8 13 C-8 11.35 -8 9.7 -8 8 C-6.02 8 -4.04 8 -2 8 C-2.66 6.68 -3.32 5.36 -4 4 C-3.01 4 -2.02 4 -1 4 C-0.67 2.68 -0.34 1.36 0 0 Z " fill="#4191EA" transform="translate(404,440)"/>
<path d="M0 0 C2.1875 0.3125 2.1875 0.3125 4 1 C2.3718356 4.75730247 -0.01401917 7.616823 -2.625 10.75 C-3.85089844 12.22726562 -3.85089844 12.22726562 -5.1015625 13.734375 C-5.72804688 14.48203125 -6.35453125 15.2296875 -7 16 C-7.33 14.68 -7.66 13.36 -8 12 C-7.01 12 -6.02 12 -5 12 C-5.33 10.68 -5.66 9.36 -6 8 C-4.68 7.34 -3.36 6.68 -2 6 C-2.33 5.01 -2.66 4.02 -3 3 C-1.75 1.4375 -1.75 1.4375 0 0 Z " fill="#4390EC" transform="translate(444,401)"/>
<path d="M0 0 C8.04668271 4.18174062 15.53175737 8.86476859 23 14 C20 15 20 15 17.8125 14.0625 C17.214375 13.711875 16.61625 13.36125 16 13 C15.67 13.66 15.34 14.32 15 15 C14.79375 14.05125 14.5875 13.1025 14.375 12.125 C13.29166667 8.70833333 13.29166667 8.70833333 9.875 7.625 C8.92625 7.41875 7.9775 7.2125 7 7 C7 6.34 7 5.68 7 5 C4.69 5.33 2.38 5.66 0 6 C0.66 5.67 1.32 5.34 2 5 C2 4.01 2 3.02 2 2 C1.34 2 0.68 2 0 2 C0 1.34 0 0.68 0 0 Z " fill="#448DE2" transform="translate(373,32)"/>
<path d="M0 0 C0.79921875 0.00644531 1.5984375 0.01289063 2.421875 0.01953125 C3.246875 0.03628906 4.071875 0.05304688 4.921875 0.0703125 C5.76234375 0.07933594 6.6028125 0.08835938 7.46875 0.09765625 C9.53658104 0.12115433 11.60426495 0.15702342 13.671875 0.1953125 C13.341875 0.8553125 13.011875 1.5153125 12.671875 2.1953125 C10.51298021 2.42958817 8.34209558 2.55629831 6.171875 2.6328125 C0.10452851 2.96781936 -4.69890333 3.96303494 -10.328125 6.1953125 C-10.328125 5.5353125 -10.328125 4.8753125 -10.328125 4.1953125 C-9.668125 4.1953125 -9.008125 4.1953125 -8.328125 4.1953125 C-8.328125 3.5353125 -8.328125 2.8753125 -8.328125 2.1953125 C-5.40988256 0.52856929 -3.35218121 -0.0478883 0 0 Z " fill="#579EEB" transform="translate(267.328125,212.8046875)"/>
<path d="M0 0 C2.54152079 2.54152079 2.26060808 4.19760983 2.2734375 7.66796875 C2.26570313 8.39628906 2.25796875 9.12460938 2.25 9.875 C2.25773437 10.59558594 2.26546875 11.31617188 2.2734375 12.05859375 C2.25955973 15.82640944 2.22771083 18.86874212 0 22 C-2.125 23.25 -2.125 23.25 -4 24 C-4 23.01 -4 22.02 -4 21 C-3.34 21 -2.68 21 -2 21 C-1.24722485 18.26750659 -0.83358297 15.71899317 -0.68359375 12.890625 C-0.62075195 11.75947266 -0.62075195 11.75947266 -0.55664062 10.60546875 C-0.49766602 9.43951172 -0.49766602 9.43951172 -0.4375 8.25 C-0.39431641 7.45722656 -0.35113281 6.66445312 -0.30664062 5.84765625 C-0.20097009 3.89862185 -0.10002034 1.94933252 0 0 Z " fill="#C0E6FE" transform="translate(327,118)"/>
<path d="M0 0 C2.125 0.9375 2.125 0.9375 4 2 C4 2.99 4 3.98 4 5 C4.66 5 5.32 5 6 5 C8.13604308 8.20406462 8.24208908 8.99600747 8.1953125 12.66796875 C8.18564453 14.00698242 8.18564453 14.00698242 8.17578125 15.37304688 C8.15902344 16.30181641 8.14226562 17.23058594 8.125 18.1875 C8.11597656 19.12787109 8.10695313 20.06824219 8.09765625 21.03710938 C8.07409056 23.35832968 8.04119116 25.67903644 8 28 C7.34 28.33 6.68 28.66 6 29 C6.06960938 27.17275391 6.06960938 27.17275391 6.140625 25.30859375 C6.17816658 23.68492052 6.21456417 22.06122055 6.25 20.4375 C6.28351563 19.63763672 6.31703125 18.83777344 6.3515625 18.01367188 C6.44762449 12.12987513 5.38832617 8.83334762 2 4 C-0.08555036 2.09667779 -0.08555036 2.09667779 -2 1 C-1.34 0.67 -0.68 0.34 0 0 Z " fill="#4E9AED" transform="translate(322,109)"/>
<path d="M0 0 C-4.88039296 4.29474581 -10.53669684 5.35334567 -16.93359375 5.203125 C-20.41226074 4.86117664 -23.64254015 3.95927424 -27 3 C-22.44451306 1.56318383 -17.91185143 2.02341102 -13.19140625 2.16015625 C-8.42291003 1.92085595 -4.86827272 -0.27818701 0 0 Z " fill="#BDE5FE" transform="translate(288,268)"/>
<path d="M0 0 C0.66 0.66 1.32 1.32 2 2 C1.67 2.99 1.34 3.98 1 5 C-0.051875 5.0825 -1.10375 5.165 -2.1875 5.25 C-6.4133633 6.08131737 -7.81611128 7.21409737 -11 10 C-13.28684722 11.51460034 -15.54485571 12.74926611 -18 14 C-18.66 13.67 -19.32 13.34 -20 13 C-13.51164125 8.33390371 -6.91108238 4.01430955 0 0 Z " fill="#4D91DB" transform="translate(126,32)"/>
<path d="M0 0 C0.66 0.66 1.32 1.32 2 2 C1.5700708 8.49807284 -0.79584519 14.91653272 -3 21 C-4.3326902 17.24255403 -3.69845123 14.2426737 -3 10.375 C-1.96876032 6.05676075 -1.96876032 6.05676075 -3 2 C-2.34 2 -1.68 2 -1 2 C-0.67 1.34 -0.34 0.68 0 0 Z " fill="#4791E2" transform="translate(491,308)"/>
<path d="M0 0 C-1.0725 0.4125 -2.145 0.825 -3.25 1.25 C-6.5570205 2.65398657 -8.53473935 4.36472138 -11 7 C-13.25 8.25 -13.25 8.25 -15 9 C-14.68151178 6.05398395 -14.44141246 4.44141246 -12.3125 2.3125 C-8.20662643 -0.01786068 -4.61114674 -1.77351798 0 0 Z " fill="#D1EFFE" transform="translate(188,111)"/>
<path d="M0 0 C-5.79424351 3.59058175 -9.30403958 4.43484866 -16 3 C-16 2.34 -16 1.68 -16 1 C-17.32 0.67 -18.64 0.34 -20 0 C-19.11957031 0.01160156 -18.23914063 0.02320313 -17.33203125 0.03515625 C-16.17058594 0.04417969 -15.00914062 0.05320312 -13.8125 0.0625 C-12.66394531 0.07410156 -11.51539063 0.08570313 -10.33203125 0.09765625 C-7.06851088 0.09617381 -7.06851088 0.09617381 -4.19921875 -0.56640625 C-2 -1 -2 -1 0 0 Z " fill="#4898ED" transform="translate(284,272)"/>
<path d="M0 0 C0.66 0.33 1.32 0.66 2 1 C0.68 7.27 -0.64 13.54 -2 20 C-2.33 20 -2.66 20 -3 20 C-3.21225012 13.42024642 -2.73300103 7.37541983 -1 1 C-0.67 0.67 -0.34 0.34 0 0 Z " fill="#5497E0" transform="translate(496,288)"/>
<path d="M0 0 C2.32217616 3.48326424 3.71673124 7.11024921 5.1875 11 C5.47302734 11.72445312 5.75855469 12.44890625 6.05273438 13.1953125 C8.11864075 18.64407774 8.11864075 18.64407774 7 22 C4.99706653 18.99559979 4.50728374 17.29006055 3.875 13.8125 C3.70742188 12.91144531 3.53984375 12.01039063 3.3671875 11.08203125 C3.24601562 10.39496094 3.12484375 9.70789063 3 9 C2.34 9 1.68 9 1 9 C0.67 6.03 0.34 3.06 0 0 Z " fill="#488CDD" transform="translate(480,152)"/>
<path d="M0 0 C2.96052484 3.36423277 3.92289822 6.69159287 5 11 C2 11 2 11 0 10 C-0.33 9.67 -0.66 9.34 -1 9 C-1.33 9.99 -1.66 10.98 -2 12 C-2 10.35 -2 8.7 -2 7 C-1.01 6.67 -0.02 6.34 1 6 C0.67 4.02 0.34 2.04 0 0 Z " fill="#4190EC" transform="translate(474,139)"/>
<path d="M0 0 C5.26630019 3.40554079 10.2703193 6.87668862 15 11 C14.01 11.33 13.02 11.66 12 12 C11.566875 11.525625 11.13375 11.05125 10.6875 10.5625 C8.97690387 8.76313043 8.97690387 8.76313043 6 8 C6 7.01 6 6.02 6 5 C3.03 4.505 3.03 4.505 0 4 C0 2.68 0 1.36 0 0 Z " fill="#478DDB" transform="translate(396,47)"/>
<path d="M0 0 C5.47932789 1.54545146 10.11429181 4.15543212 15 7 C13.02 7.99 13.02 7.99 11 9 C11 8.34 11 7.68 11 7 C10.34 7 9.68 7 9 7 C9 6.34 9 5.68 9 5 C6.69 5 4.38 5 2 5 C1.34 3.35 0.68 1.7 0 0 Z " fill="#428EDF" transform="translate(357,24)"/>
<path d="M0 0 C-2.09836004 1.03271642 -4.20390891 2.05083717 -6.3125 3.0625 C-7.48425781 3.63097656 -8.65601563 4.19945312 -9.86328125 4.78515625 C-13 6 -13 6 -16 5 C-15.34 5 -14.68 5 -14 5 C-14 4.01 -14 3.02 -14 2 C-12.23225581 1.46877637 -10.46065917 0.95035927 -8.6875 0.4375 C-7.70136719 0.14746094 -6.71523438 -0.14257812 -5.69921875 -0.44140625 C-3 -1 -3 -1 0 0 Z " fill="#4B94E1" transform="translate(361,475)"/>
<path d="M0 0 C0.33 0.66 0.66 1.32 1 2 C0.27683594 2.99580078 0.27683594 2.99580078 -0.4609375 4.01171875 C-1.09257813 4.89472656 -1.72421875 5.77773437 -2.375 6.6875 C-3.00148438 7.55761719 -3.62796875 8.42773438 -4.2734375 9.32421875 C-5.89415843 11.83596952 -6.99858088 14.19299187 -8 17 C-8.99 16.67 -9.98 16.34 -11 16 C-9.730624 14.08236785 -8.45944055 12.16593207 -7.1875 10.25 C-6.47980469 9.18265625 -5.77210937 8.1153125 -5.04296875 7.015625 C-3.42050074 4.6207009 -1.76324711 2.29166502 0 0 Z " fill="#498FDB" transform="translate(47,103)"/>
<path d="M0 0 C0.66 0 1.32 0 2 0 C2 0.66 2 1.32 2 2 C3.32 2.33 4.64 2.66 6 3 C6.66 5.64 7.32 8.28 8 11 C2.19794344 5.35475578 2.19794344 5.35475578 0 2 C0 1.34 0 0.68 0 0 Z " fill="#4590E7" transform="translate(46,394)"/>
<path d="M0 0 C0 0.66 0 1.32 0 2 C-0.99 2 -1.98 2 -3 2 C-3 2.66 -3 3.32 -3 4 C-8.94 4.495 -8.94 4.495 -15 5 C-12.58923344 3.39282229 -10.71900755 2.38457485 -8.0625 1.375 C-7.39347656 1.11460938 -6.72445312 0.85421875 -6.03515625 0.5859375 C-4 0 -4 0 0 0 Z " fill="#4A91DE" transform="translate(177,11)"/>
<path d="M0 0 C-0.33 0.66 -0.66 1.32 -1 2 C-3.31 2 -5.62 2 -8 2 C-8.33 2.99 -8.66 3.98 -9 5 C-11.31 4.67 -13.62 4.34 -16 4 C-10.96003362 0.64002241 -6.00290323 -0.29282455 0 0 Z " fill="#4A93E2" transform="translate(193,7)"/>
<path d="M0 0 C0 3 0 3 -2.0625 5.625 C-5.47997699 8.3880665 -7.67403972 8.74553175 -12 9 C-8.25 6 -8.25 6 -6 6 C-6 5.34 -6 4.68 -6 4 C-4.03852126 2.61061923 -2.03833424 1.2739589 0 0 Z " fill="#509CEE" transform="translate(296,262)"/>
<path d="M0 0 C2.13586678 3.20380017 2.23132175 4.01939967 2.125 7.6875 C2.10695313 8.49574219 2.08890625 9.30398437 2.0703125 10.13671875 C2.04710937 10.75160156 2.02390625 11.36648437 2 12 C1.01 12 0.02 12 -1 12 C-0.67 8.04 -0.34 4.08 0 0 Z " fill="#3E91E8" transform="translate(491,184)"/>
<path d="M0 0 C7 8.20689655 7 8.20689655 7 13 C6.34 13 5.68 13 5 13 C5 12.01 5 11.02 5 10 C4.34 10 3.68 10 3 10 C3 8.68 3 7.36 3 6 C2.01 6 1.02 6 0 6 C0 4.02 0 2.04 0 0 Z " fill="#448CDE" transform="translate(466,124)"/>
<path d="M0 0 C2.0625 0.4375 2.0625 0.4375 4 1 C2.88243734 4.86848614 1.97126708 7.28922757 -1 10 C-1.02689216 8.52093108 -1.04634621 7.04172517 -1.0625 5.5625 C-1.07410156 4.73878906 -1.08570313 3.91507812 -1.09765625 3.06640625 C-1 1 -1 1 0 0 Z " fill="#4292E3" transform="translate(469,362)"/>
<path d="M0 0 C0.99 0.33 1.98 0.66 3 1 C2.38144369 2.6274637 1.75492695 4.25190356 1.125 5.875 C0.77695312 6.77992188 0.42890625 7.68484375 0.0703125 8.6171875 C-1 11 -1 11 -3 13 C-3 11.35 -3 9.7 -3 8 C-2.34 8 -1.68 8 -1 8 C-0.67 5.36 -0.34 2.72 0 0 Z " fill="#498FDD" transform="translate(476,350)"/>
<path d="M0 0 C1.65 0 3.3 0 5 0 C1.4912812 3.09592835 -1.49197399 4.74194623 -6 6 C-5.67 5.01 -5.34 4.02 -5 3 C-3.35 2.67 -1.7 2.34 0 2 C0 1.34 0 0.68 0 0 Z " fill="#4991E2" transform="translate(367,468)"/>
<path d="M0 0 C-3.42346555 3.14958831 -6.44262737 3.56179109 -11 4 C-7.64191281 0.32209498 -4.88401581 -0.13200043 0 0 Z " fill="#D7F2FE" transform="translate(288,268)"/>
<path d="M0 0 C0.33 0 0.66 0 1 0 C1.33 2.64 1.66 5.28 2 8 C0.35 8.33 -1.3 8.66 -3 9 C-2.01 6.03 -1.02 3.06 0 0 Z " fill="#4693E6" transform="translate(22,145)"/>
<path d="M0 0 C0.99 0.33 1.98 0.66 3 1 C0.36 3.64 -2.28 6.28 -5 9 C-5.33 7.68 -5.66 6.36 -6 5 C-5.195625 4.54625 -4.39125 4.0925 -3.5625 3.625 C-0.91143428 2.25274335 -0.91143428 2.25274335 0 0 Z " fill="#4C8FDA" transform="translate(419,431)"/>
<path d="M0 0 C0 4.24645065 -1.81750806 6.38524772 -4 10 C-4.66 8.68 -5.32 7.36 -6 6 C-5.01 6 -4.02 6 -3 6 C-2.87625 5.195625 -2.7525 4.39125 -2.625 3.5625 C-2.41875 2.716875 -2.2125 1.87125 -2 1 C-1.34 0.67 -0.68 0.34 0 0 Z " fill="#4D90DF" transform="translate(463,379)"/>
<path d="M0 0 C0 0.99 0 1.98 0 3 C-3.33333333 6 -3.33333333 6 -6 6 C-6 6.66 -6 7.32 -6 8 C-6.66 8 -7.32 8 -8 8 C-7.8125 6.125 -7.8125 6.125 -7 4 C-4.5625 2.875 -4.5625 2.875 -2 2 C-1.34 1.34 -0.68 0.68 0 0 Z " fill="#BBE2FD" transform="translate(296,260)"/>
<path d="M0 0 C0.66 0.66 1.32 1.32 2 2 C1.67 2.99 1.34 3.98 1 5 C-0.98 5 -2.96 5 -5 5 C-5 4.34 -5 3.68 -5 3 C-2.5 1.375 -2.5 1.375 0 0 Z " fill="#4391ED" transform="translate(126,32)"/>
<path d="M0 0 C0.33 0 0.66 0 1 0 C0.67 2.97 0.34 5.94 0 9 C-1.32 9.33 -2.64 9.66 -4 10 C-3.71125 9.46375 -3.4225 8.9275 -3.125 8.375 C-1.83288192 5.64719516 -0.91441408 2.87387282 0 0 Z " fill="#5FA5F2" transform="translate(301,250)"/>
<path d="M0 0 C-0.33 0.99 -0.66 1.98 -1 3 C-2.32 3 -3.64 3 -5 3 C-5 3.66 -5 4.32 -5 5 C-6.65 5.33 -8.3 5.66 -10 6 C-4.4 0 -4.4 0 0 0 Z " fill="#CBEBFD" transform="translate(262,217)"/>
<path d="M0 0 C0.33 1.32 0.66 2.64 1 4 C-3.43076923 6.09230769 -3.43076923 6.09230769 -6.3125 5.625 C-6.869375 5.41875 -7.42625 5.2125 -8 5 C-7.05125 4.54625 -6.1025 4.0925 -5.125 3.625 C-1.99686321 2.19761746 -1.99686321 2.19761746 0 0 Z " fill="#569EEA" transform="translate(332,384)"/>
<path d="M0 0 C1.9375 1.4375 1.9375 1.4375 2.6875 4.5625 C2.77 5.51125 2.8525 6.46 2.9375 7.4375 C0.9375 6.4375 0.9375 6.4375 -0.0625 3.4375 C-2.05915314 1.75211399 -2.05915314 1.75211399 -4.0625 0.4375 C-2.0625 -0.5625 -2.0625 -0.5625 0 0 Z " fill="#61A7F1" transform="translate(324.0625,109.5625)"/>
<path d="M0 0 C0.33 0 0.66 0 1 0 C1 1.65 1 3.3 1 5 C-0.98 5.66 -2.96 6.32 -5 7 C-4.19152271 5.83054208 -3.37810888 4.66449539 -2.5625 3.5 C-2.11003906 2.8503125 -1.65757813 2.200625 -1.19140625 1.53125 C-0.79824219 1.0259375 -0.40507813 0.520625 0 0 Z " fill="#4290E4" transform="translate(61,85)"/>
<path d="M0 0 C1.32 0.66 2.64 1.32 4 2 C3.0409375 2.433125 3.0409375 2.433125 2.0625 2.875 C-0.15206079 3.82823451 -0.15206079 3.82823451 -1 6 C-1.66 6 -2.32 6 -3 6 C-2.42655063 3.13275314 -2.1385485 2.1385485 0 0 Z " fill="#4290E8" transform="translate(87,59)"/>
<path d="M0 0 C2.25 0.25 2.25 0.25 4 1 C2.02 2.32 0.04 3.64 -2 5 C-2.66 4.67 -3.32 4.34 -4 4 C-2.25 1.9375 -2.25 1.9375 0 0 Z " fill="#4E90E1" transform="translate(381,460)"/>
<path d="M0 0 C2.31 0 4.62 0 7 0 C7.33 0.99 7.66 1.98 8 3 C8.66 3 9.32 3 10 3 C9.67 3.66 9.34 4.32 9 5 C8.2575 4.54625 7.515 4.0925 6.75 3.625 C4.53069422 2.31359204 2.32032178 1.11719197 0 0 Z " fill="#579DEE" transform="translate(322,353)"/>
<path d="M0 0 C-2.2386565 2.2386565 -4.06570533 2.8996395 -7 4 C-7.99 4.495 -7.99 4.495 -9 5 C-8.6875 3.0625 -8.6875 3.0625 -8 1 C-5.07175348 0.02391783 -3.04386724 -0.08226668 0 0 Z " fill="#60A5EE" transform="translate(184,110)"/>
</svg>
