<svg xmlns="http://www.w3.org/2000/svg" xml:space="preserve" width="2000" height="1500" data-id="lg_XREyJlNohJxA1jcK0C" data-version="1"><path fill="#fff" stroke="transparent" d="M0 0h2000v1500H0z"/><g data-padding="20"><g transform="translate(-992.397 -719.918)scale(1.8713)"><path fill="#111" stroke="transparent" d="M1174.362 985.754h-181.17q-18.31 0-24.75-9.41-6.43-9.4-6.43-20.79v-333.63q0-11.38 6.43-20.54 6.44-9.16 24.75-9.16h172.26q18.32 0 19.31 24.75.99 25.25-19.31 25.25h-145.03v293.53h153.94q18.32 0 18.81 24.26.99 25.74-18.81 25.74m-27.22-204.93q0 17.32-12.13 29.2t-29.45 11.88q-16.83 0-28.71-11.88t-11.88-29.2q0-17.33 11.88-29.21t28.71-11.88q17.32 0 29.45 11.88t12.13 29.21"/><rect width="285.45" height="559.35" x="520.992" y="105.164" fill="none" rx="0" ry="0" transform="translate(401 400.67)"/></g><path fill="transparent" stroke="transparent" stroke-width="2.013" d="M713.216 187.5h573.568v1125H713.216z"/></g></svg>